<svg width="28" height="28" viewBox="0 0 28 28" fill="none" xmlns="http://www.w3.org/2000/svg">
<rect width="28" height="28" rx="14" fill="#C5D9FF"/>
<path fill-rule="evenodd" clip-rule="evenodd" d="M19.7556 10.6342C19.9056 10.7842 19.9898 10.9877 19.9898 11.1998C19.9898 11.412 19.9056 11.6154 19.7556 11.7654L13.3556 18.1654C13.2056 18.3154 13.0021 18.3997 12.79 18.3997C12.5778 18.3997 12.3744 18.3154 12.2244 18.1654L9.02437 14.9654C8.87865 14.8145 8.79801 14.6125 8.79983 14.4027C8.80166 14.1929 8.88579 13.9923 9.03412 13.844C9.18245 13.6956 9.3831 13.6115 9.59285 13.6097C9.80261 13.6079 10.0047 13.6885 10.1556 13.8342L12.79 16.4686L18.6244 10.6342C18.7744 10.4842 18.9778 10.4 19.19 10.4C19.4021 10.4 19.6056 10.4842 19.7556 10.6342Z" fill="#0070D7"/>
</svg>
